<?xml version="1.0" encoding="UTF-8" standalone="no"?>
<!-- Created with Inkscape (http://www.inkscape.org/) -->

<svg
   xmlns:dc="http://purl.org/dc/elements/1.1/"
   xmlns:cc="http://creativecommons.org/ns#"
   xmlns:rdf="http://www.w3.org/1999/02/22-rdf-syntax-ns#"
   xmlns:svg="http://www.w3.org/2000/svg"
   xmlns="http://www.w3.org/2000/svg"
   xmlns:sodipodi="http://sodipodi.sourceforge.net/DTD/sodipodi-0.dtd"
   xmlns:inkscape="http://www.inkscape.org/namespaces/inkscape"
   version="1.1"
   width="1488.1875"
   height="1052.3625"
   id="svg2"
   xml:space="preserve"
   inkscape:version="0.48.1 r9760"
   sodipodi:docname="A3_SIE_map_paysage_long.svg"><sodipodi:namedview
     pagecolor="#ffffff"
     bordercolor="#666666"
     borderopacity="1"
     objecttolerance="10"
     gridtolerance="10"
     guidetolerance="10"
     inkscape:pageopacity="0"
     inkscape:pageshadow="2"
     inkscape:window-width="1920"
     inkscape:window-height="994"
     id="namedview17"
     showgrid="false"
     inkscape:zoom="0.30787869"
     inkscape:cx="750.58982"
     inkscape:cy="566.78168"
     inkscape:window-x="0"
     inkscape:window-y="25"
     inkscape:window-maximized="1"
     inkscape:current-layer="svg2" /><metadata
     id="metadata8"><rdf:RDF><cc:Work
         rdf:about=""><dc:format>image/svg+xml</dc:format><dc:type
           rdf:resource="http://purl.org/dc/dcmitype/StillImage" /><dc:title /></cc:Work></rdf:RDF></metadata><defs
     id="defs6"><clipPath
       id="clipPath18"><path
         d="m 0,841.89 1190.551,0 0,-841.89 L 0,0 0,841.89 z"
         id="path20" /></clipPath><clipPath
       id="clipPath88"><path
         d="m 0,841.89 1190.551,0 0,-841.89 L 0,0 0,841.89 z"
         id="path90" /></clipPath></defs><g
     id="g22"
     transform="matrix(1.25,0,0,-1.25,1071.413,39.496875)"><path
       inkscape:connector-curvature="0"
       style="fill:#435fa4;fill-opacity:1;fill-rule:nonzero;stroke:none"
       id="path24"
       d="m 0,0 0,31.449 -857.359,0.328 0,-52.779 820.99,0 c 0,0 36.871,-1.959 36.369,21.002" /></g><g
     id="g26"
     transform="matrix(1.25,0,0,-1.25,-0.006125,95.15175)"><path
       inkscape:connector-curvature="0"
       style="fill:#435fa4;fill-opacity:1;fill-rule:nonzero;stroke:none"
       id="path28"
       d="M 0,0 C 0,0 3.766,24.571 44.484,24.571 85.202,24.571 0,24.007 0,24.007 L 0,0 z" /></g><g
     id="g30"
     transform="matrix(1.25,0,0,-1.25,-0.006125,95.15175)"><path
       inkscape:connector-curvature="0"
       style="fill:none;stroke:#435fa4;stroke-width:0.5;stroke-linecap:butt;stroke-linejoin:miter;stroke-miterlimit:4;stroke-opacity:1;stroke-dasharray:none"
       id="path32"
       d="M 0,0 C 0,0 3.766,24.571 44.484,24.571 85.202,24.571 0,24.007 0,24.007 L 0,0 z" /></g></svg>