<?xml version="1.0" encoding="UTF-8" standalone="no"?>
<!-- Created with Inkscape (http://www.inkscape.org/) -->

<svg
   xmlns:dc="http://purl.org/dc/elements/1.1/"
   xmlns:cc="http://creativecommons.org/ns#"
   xmlns:rdf="http://www.w3.org/1999/02/22-rdf-syntax-ns#"
   xmlns:svg="http://www.w3.org/2000/svg"
   xmlns="http://www.w3.org/2000/svg"
   version="1.1"
   width="1488.1875"
   height="1052.3625"
   id="svg2"
   xml:space="preserve"><metadata
     id="metadata8"><rdf:RDF><cc:Work
         rdf:about=""><dc:format>image/svg+xml</dc:format><dc:type
           rdf:resource="http://purl.org/dc/dcmitype/StillImage" /><dc:title></dc:title></cc:Work></rdf:RDF></metadata><defs
     id="defs6"><clipPath
       id="clipPath20"><path
         d="m 0,841.89 1190.551,0 0,-841.89 L 0,0 0,841.89 z"
         id="path22" /></clipPath><clipPath
       id="clipPath76"><path
         d="m 0,841.89 1190.551,0 0,-841.89 L 0,0 0,841.89 z"
         id="path78" /></clipPath></defs><g
     transform="matrix(1.25,0,0,-1.25,0,1052.3625)"
     id="g10"><g
       transform="translate(857.1304,819.3154)"
       id="g94"><path
         d="m 0,0 0,22.715 -857.148,0.237 0,-38.121 820.787,0 c 0,0 36.861,-1.416 36.361,15.169"
         id="path96"
         style="fill:#435fa4;fill-opacity:1;fill-rule:nonzero;stroke:none" /></g><g
       transform="translate(-0.0815,780.1523)"
       id="g98"><path
         d="M 0,0 C 0,0 3.75,24.466 44.294,24.466 84.839,24.466 0,23.905 0,23.905 L 0,0 z"
         id="path100"
         style="fill:#435fa4;fill-opacity:1;fill-rule:nonzero;stroke:none" /></g><g
       transform="translate(-0.0815,780.1523)"
       id="g102"><path
         d="M 0,0 C 0,0 3.75,24.466 44.294,24.466 84.839,24.466 0,23.905 0,23.905 L 0,0 z"
         id="path104"
         style="fill:none;stroke:#435fa4;stroke-width:0.5;stroke-linecap:butt;stroke-linejoin:miter;stroke-miterlimit:4;stroke-opacity:1;stroke-dasharray:none" /></g></g></svg>