<?xml version="1.0" encoding="UTF-8" standalone="no"?>
<!-- Created with Inkscape (http://www.inkscape.org/) -->

<svg
   xmlns:dc="http://purl.org/dc/elements/1.1/"
   xmlns:cc="http://creativecommons.org/ns#"
   xmlns:rdf="http://www.w3.org/1999/02/22-rdf-syntax-ns#"
   xmlns:svg="http://www.w3.org/2000/svg"
   xmlns="http://www.w3.org/2000/svg"
   xmlns:sodipodi="http://sodipodi.sourceforge.net/DTD/sodipodi-0.dtd"
   xmlns:inkscape="http://www.inkscape.org/namespaces/inkscape"
   version="1.1"
   width="1052.3625"
   height="744.09998"
   id="svg2"
   xml:space="preserve"
   inkscape:version="0.48.1 r9760"
   sodipodi:docname="A4_SIE_map_paysage_court.svg"><sodipodi:namedview
     pagecolor="#ffffff"
     bordercolor="#666666"
     borderopacity="1"
     objecttolerance="10"
     gridtolerance="10"
     guidetolerance="10"
     inkscape:pageopacity="0"
     inkscape:pageshadow="2"
     inkscape:window-width="1920"
     inkscape:window-height="994"
     id="namedview18"
     showgrid="false"
     inkscape:zoom="0.43542536"
     inkscape:cx="530.77448"
     inkscape:cy="400.75755"
     inkscape:window-x="0"
     inkscape:window-y="25"
     inkscape:window-maximized="1"
     inkscape:current-layer="svg2" /><metadata
     id="metadata8"><rdf:RDF><cc:Work
         rdf:about=""><dc:format>image/svg+xml</dc:format><dc:type
           rdf:resource="http://purl.org/dc/dcmitype/StillImage" /><dc:title /></cc:Work></rdf:RDF></metadata><defs
     id="defs6"><clipPath
       id="clipPath16"><path
         d="m 0,595.28 841.89,0 L 841.89,0 0,0 0,595.28 z"
         id="path18" /></clipPath><clipPath
       id="clipPath76"><path
         d="m 0,595.28 841.89,0 L 841.89,0 0,0 0,595.28 z"
         id="path78" /></clipPath></defs><g
     id="g92"
     transform="matrix(1.25,0,0,-1.25,758.999,20.198)"><path
       inkscape:connector-curvature="0"
       style="fill:#435fa4;fill-opacity:1;fill-rule:nonzero;stroke:none"
       id="path94"
       d="m 0,0 0,15.976 -607.213,0.167 0,-26.812 581.455,0 c 0,0 26.112,-0.996 25.758,10.669" /></g><g
     id="g98"
     transform="matrix(1.25,0,0,-1.25,-0.4285,54.783625)"><path
       inkscape:connector-curvature="0"
       style="fill:#435fa4;fill-opacity:1;fill-rule:nonzero;stroke:none"
       id="path100"
       d="M 0,0 C 0,0 2.679,17.476 31.639,17.476 60.6,17.476 0,17.075 0,17.075 L 0,0 z" /></g><g
     id="g102"
     transform="matrix(1.25,0,0,-1.25,-0.4285,54.783625)"><path
       inkscape:connector-curvature="0"
       style="fill:none;stroke:#435fa4;stroke-width:0.5;stroke-linecap:butt;stroke-linejoin:miter;stroke-miterlimit:4;stroke-opacity:1;stroke-dasharray:none"
       id="path104"
       d="M 0,0 C 0,0 2.679,17.476 31.639,17.476 60.6,17.476 0,17.075 0,17.075 L 0,0 z" /></g></svg>