<?xml version="1.0" encoding="UTF-8" standalone="no"?>
<!-- Created with Inkscape (http://www.inkscape.org/) -->

<svg
   xmlns:dc="http://purl.org/dc/elements/1.1/"
   xmlns:cc="http://creativecommons.org/ns#"
   xmlns:rdf="http://www.w3.org/1999/02/22-rdf-syntax-ns#"
   xmlns:svg="http://www.w3.org/2000/svg"
   xmlns="http://www.w3.org/2000/svg"
   version="1.1"
   width="1052.3625"
   height="1488.1875"
   id="svg2"
   xml:space="preserve"><metadata
     id="metadata8"><rdf:RDF><cc:Work
         rdf:about=""><dc:format>image/svg+xml</dc:format><dc:type
           rdf:resource="http://purl.org/dc/dcmitype/StillImage" /><dc:title></dc:title></cc:Work></rdf:RDF></metadata><defs
     id="defs6"><clipPath
       id="clipPath18"><path
         d="m 0,1190.551 841.89,0 L 841.89,0 0,0 0,1190.551 z"
         id="path20" /></clipPath></defs><g
     transform="matrix(1.25,0,0,-1.25,0,1488.1875)"
     id="g10"><g
       transform="translate(841.8506,1167.5259)"
       id="g88"><path
         d="m 0,0 0,22.83 -841.717,0.239 0,-38.316 806.007,0 c 0,0 36.201,-1.423 35.71,15.247"
         id="path90"
         style="fill:#435fa4;fill-opacity:1;fill-rule:nonzero;stroke:none" /></g><g
       transform="translate(0.1357,1128.9346)"
       id="g92"><path
         d="M 0,0 C 0,0 2.536,24.169 32.327,24.169 L 0,24.146 0,0 z"
         id="path94"
         style="fill:#435fa4;fill-opacity:1;fill-rule:nonzero;stroke:none" /></g><g
       transform="translate(0.1357,1128.9346)"
       id="g96"><path
         d="M 0,0 C 0,0 2.536,24.169 32.327,24.169 L 0,24.146 0,0 z"
         id="path98"
         style="fill:none;stroke:#435fa4;stroke-width:0.5;stroke-linecap:butt;stroke-linejoin:miter;stroke-miterlimit:4;stroke-opacity:1;stroke-dasharray:none" /></g></g></svg>