<?xml version="1.0" encoding="UTF-8" standalone="no"?>
<!-- Created with Inkscape (http://www.inkscape.org/) -->

<svg
   xmlns:dc="http://purl.org/dc/elements/1.1/"
   xmlns:cc="http://creativecommons.org/ns#"
   xmlns:rdf="http://www.w3.org/1999/02/22-rdf-syntax-ns#"
   xmlns:svg="http://www.w3.org/2000/svg"
   xmlns="http://www.w3.org/2000/svg"
   version="1.1"
   width="744.09998"
   height="1052.3625"
   id="svg2"
   xml:space="preserve"><metadata
     id="metadata8"><rdf:RDF><cc:Work
         rdf:about=""><dc:format>image/svg+xml</dc:format><dc:type
           rdf:resource="http://purl.org/dc/dcmitype/StillImage" /><dc:title></dc:title></cc:Work></rdf:RDF></metadata><defs
     id="defs6"><clipPath
       id="clipPath18"><path
         d="m 0,841.89 595.28,0 L 595.28,0 0,0 0,841.89 z"
         id="path20" /></clipPath></defs><g
     transform="matrix(1.25,0,0,-1.25,0,1052.3625)"
     id="g10"><g
       transform="translate(595.3301,825.71)"
       id="g86"><path
         d="m 0,0 0,15.976 -595.247,0.167 0,-26.812 569.995,0 c 0,0 25.6,-0.996 25.252,10.669"
         id="path88"
         style="fill:#435fa4;fill-opacity:1;fill-rule:nonzero;stroke:none" /></g><g
       transform="translate(0.0503,798.5327)"
       id="g90"><path
         d="M 0,0 C 0,0 1.795,17.092 22.895,17.092 L 0,17.075 0,0 z"
         id="path92"
         style="fill:#435fa4;fill-opacity:1;fill-rule:nonzero;stroke:none" /></g><g
       transform="translate(0.0503,798.5327)"
       id="g94"><path
         d="M 0,0 C 0,0 1.795,17.092 22.895,17.092 L 0,17.075 0,0 z"
         id="path96"
         style="fill:none;stroke:#435fa4;stroke-width:0.5;stroke-linecap:butt;stroke-linejoin:miter;stroke-miterlimit:4;stroke-opacity:1;stroke-dasharray:none" /></g></g></svg>